<?xml version="1.0" encoding="UTF-8"?>
<svg xmlns="http://www.w3.org/2000/svg" xmlns:xlink="http://www.w3.org/1999/xlink" viewBox="0 0 64 64" width="64px" height="64px">
<g id="surface49186561">
<path style=" stroke:none;fill-rule:nonzero;fill:rgb(18.039216%,80.000001%,44.313726%);fill-opacity:1;" d="M 32 6 C 17.664062 6 6 17.664062 6 32 C 6 46.335938 17.664062 58 32 58 C 46.335938 58 58 46.335938 58 32 C 58 17.664062 46.335938 6 32 6 Z M 32 10 C 44.171875 10 54 19.828125 54 32 C 54 44.171875 44.171875 54 32 54 C 19.828125 54 10 44.171875 10 32 C 10 19.828125 19.828125 10 32 10 Z M 44.5625 22.5625 L 30 37.125 L 21.4375 28.5625 L 18.5625 31.4375 L 28.5625 41.4375 L 30 42.8125 L 31.4375 41.4375 L 47.4375 25.4375 Z M 44.5625 22.5625 "/>
</g>
</svg>
